<svg width="117" height="56" viewBox="0 0 117 56" fill="none" xmlns="http://www.w3.org/2000/svg">
<path d="M94.1958 16.8045C94.1065 17.0718 93.2287 17.0585 93.1246 16.8045C92.9461 16.3767 92.8419 15.9622 92.7973 15.5077C92.7527 15.0933 92.7229 14.6788 92.6783 14.2778C92.5741 12.9944 92.4997 11.6843 92.4849 10.3875C92.1427 10.3875 91.8005 10.4009 91.4435 10.3875C90.6103 10.3875 89.7474 10.3875 88.8994 10.3207C88.8697 11.0025 88.8399 11.6709 88.8102 12.3393C88.7804 13.088 88.7506 13.8366 88.7209 14.5853C88.6911 14.9462 88.6911 15.3205 88.6614 15.6815C88.6316 16.0692 88.5424 16.4301 88.4233 16.8045C88.3341 17.0718 87.4563 17.0585 87.3522 16.8045C87.1737 16.3767 87.0695 15.9622 87.0249 15.5077C86.9802 15.0933 86.9505 14.6788 86.9059 14.2778C86.7868 12.834 86.7125 11.3768 86.7125 9.933C86.0281 9.69237 85.4181 9.29131 85.1503 8.66299C84.7189 7.64698 85.2842 6.60423 85.9835 5.82885C86.3108 5.4679 86.6827 5.14705 87.1885 5.05347C87.3522 5.02674 87.501 5.01337 87.6646 5.02674C87.7687 5.01337 87.8878 5.01337 87.9622 5C88.1704 5 88.7209 5.05347 88.7953 5.29411C88.8697 5.52137 88.9441 5.7219 88.9738 5.96254C88.9887 6.1898 89.0036 6.4037 89.0036 6.6176C89.0036 7.03202 89.0036 7.44645 88.9887 7.84751C88.9738 8.56941 88.9589 9.27794 88.9143 9.98648C89.0482 9.99985 89.1672 9.99985 89.3011 10.0132C90.3574 10.0667 91.4286 10.0801 92.4849 10.0801C92.4849 9.97311 92.4849 9.87953 92.4849 9.78595C92.4997 9.03731 92.4849 8.28867 92.5295 7.54003C92.589 6.77802 92.589 6.01601 92.9163 5.29411C93.0205 5.05347 93.4965 5.01337 93.7346 5C93.9428 5 94.4933 5.05347 94.5677 5.29411C94.6421 5.52137 94.7165 5.7219 94.7462 5.96254C94.7611 6.1898 94.776 6.4037 94.776 6.6176C94.776 7.03202 94.776 7.44645 94.7611 7.84751C94.7611 8.56941 94.7313 9.30468 94.6867 10.0266C95.1182 10.0132 95.5347 9.98648 95.9662 9.97311C96.0554 9.97311 96.3083 9.99985 96.3083 10.1335C96.3083 10.2672 96.0703 10.294 95.9662 10.294C95.5347 10.3073 95.1033 10.3207 94.6718 10.3341C94.6421 11.0025 94.6123 11.6709 94.5826 12.3393C94.5528 13.088 94.5231 13.8366 94.4933 14.5853C94.4636 14.9462 94.4636 15.3205 94.4338 15.6815C94.404 16.0692 94.3148 16.4301 94.1958 16.8045ZM85.8942 7.04539C85.5371 7.88761 85.7008 8.81004 86.5191 9.37152C86.5786 9.41163 86.6529 9.45174 86.7125 9.49184C86.7125 8.85015 86.7125 8.19509 86.7571 7.54003C86.8017 6.85823 86.8166 6.17643 87.0398 5.53474C86.519 5.9358 86.0132 6.80476 85.8942 7.04539Z" fill="#FFC334"/>
<path d="M102.289 11.056C102.378 11.2298 102.17 11.2966 102.051 11.3233C101.649 11.4035 100.965 11.5907 100.295 11.6442C100.266 11.8313 100.236 12.0319 100.206 12.2057C100.087 12.8206 99.8937 13.4222 99.5664 13.9436C99.2093 14.5184 98.7184 14.9329 98.0489 14.9329C97.305 14.9462 96.695 14.5184 96.3231 13.8366C95.9958 13.2217 95.8173 12.4196 95.8173 11.711C95.8173 10.9758 95.8768 9.97311 96.5314 9.59879C96.8885 9.39826 97.3496 9.39826 97.7216 9.50521C97.9745 9.58542 98.2572 9.77258 98.1679 10.1068C98.2125 9.97311 98.1679 10.187 98.1679 10.2004C98.153 10.2672 98.1381 10.3207 98.1233 10.3875C98.0935 10.548 98.0638 10.7084 98.0191 10.8688C97.9596 11.1362 97.9001 11.4303 97.8852 11.711C97.8257 12.2859 97.8108 12.834 97.915 13.4088C97.9447 13.6361 97.9745 13.85 98.0638 14.0639C98.1084 14.1441 98.1381 14.2243 98.1828 14.2912C98.1977 14.3045 98.2125 14.3179 98.2274 14.3313C98.272 14.3045 98.3316 14.2912 98.3613 14.2644C98.4357 14.2109 98.5101 14.1441 98.5696 14.0639C98.7332 13.8901 98.8671 13.7029 98.9862 13.489C99.3135 12.9276 99.492 12.2859 99.5664 11.6308C98.9862 11.564 98.525 11.2966 98.4357 10.6148C98.3762 10.0801 98.5696 9.38489 99.12 9.26458C99.73 9.13089 100.132 9.61216 100.251 10.2137C100.325 10.5346 100.355 10.8955 100.325 11.2431C100.816 11.1897 101.292 11.0827 101.768 10.9624C101.902 10.9356 102.2 10.9089 102.289 11.056ZM99.611 11.2164C99.611 11.056 99.611 10.8955 99.611 10.7351C99.5961 10.4811 99.5664 10.2405 99.492 10.0132C99.4474 9.90627 99.4027 9.79932 99.3432 9.71911C99.3432 9.71911 99.3283 9.71911 99.3283 9.70574C99.1498 10.0667 99.0308 10.4945 99.2242 10.8822C99.3135 11.0693 99.4474 11.1629 99.611 11.2164Z" fill="#FFC334"/>
<path d="M111.367 11.0159C111.5 10.7886 112.2 10.8955 112.066 11.1228C111.381 12.2057 111.173 13.5693 110.385 14.5719C110.251 14.7457 110.117 14.9462 109.923 15.0665C109.611 15.2671 109.209 15.2537 108.867 15.1334C108.257 14.9195 108.094 14.2377 108.034 13.6227C107.9 12.3661 108.183 11.1495 108.213 9.90627C108.227 9.79932 108.242 9.69237 108.242 9.57205C108.242 9.58542 108.227 9.59879 108.213 9.61216C108.123 9.70574 108.049 9.81269 107.975 9.91964C107.662 10.4009 107.379 10.9089 107.141 11.4303C106.784 12.2057 106.502 12.9944 106.234 13.8099C106.234 14.0372 106.234 14.2644 106.219 14.4917C106.189 14.9061 105.594 14.973 105.311 14.9863C105.029 14.9863 104.419 14.8927 104.389 14.4917C104.374 14.0773 104.404 13.6495 104.419 13.2217C104.449 12.7939 104.449 12.3795 104.508 11.9517C104.538 11.5907 104.642 11.1897 104.612 10.8287C104.612 10.8153 104.612 10.7886 104.597 10.7619C104.568 10.802 104.538 10.8287 104.508 10.8688C104.062 11.3501 103.868 12.1121 103.66 12.7404C103.422 13.489 103.214 14.2511 102.991 15.0131C102.961 15.1066 102.782 15.1467 102.619 15.1334C102.396 15.1735 102.083 15.1066 101.964 15.0131C101.547 14.719 101.458 14.3313 101.414 13.8099C101.369 13.3286 101.354 12.834 101.339 12.3393C101.324 11.8581 101.309 11.3634 101.295 10.8688C101.295 10.6148 101.309 10.3474 101.309 10.0801C101.309 9.81269 101.309 9.50521 101.458 9.29131C101.786 8.83678 102.723 8.82341 103.035 9.29131C103.184 9.50521 103.184 9.77258 103.184 10.04C103.169 10.2806 103.184 10.5212 103.169 10.7752C103.154 11.2565 103.11 11.7511 103.08 12.2324C103.08 12.2725 103.08 12.2992 103.08 12.326C103.095 12.2859 103.11 12.2458 103.11 12.2057C103.348 11.4971 103.63 10.6549 104.315 10.3207C104.687 10.1469 105.163 10.1469 105.535 10.3474C105.921 10.5613 106.07 10.9758 106.115 11.4169C106.145 11.6174 106.159 11.8046 106.159 11.9918C106.204 11.9116 106.234 11.8313 106.264 11.7511C106.591 10.949 106.978 10.1202 107.513 9.46511C108.094 8.76994 109.194 8.7432 109.76 9.46511C110.028 9.81269 110.117 10.3474 110.161 10.7886C110.191 11.2832 110.191 11.7912 110.161 12.2859C110.117 12.7671 110.042 13.235 110.013 13.7163C109.998 13.7965 109.998 13.8901 109.983 13.9703C109.998 13.9569 110.013 13.9302 110.028 13.9168C110.206 13.6361 110.355 13.3286 110.474 13.0211C110.757 12.3527 110.995 11.6442 111.367 11.0159Z" fill="#FFC334"/>
<path d="M116.352 10.9089C116.412 10.6816 117.081 10.7351 116.992 11.0025C116.709 11.7912 116.367 12.5532 115.936 13.2618C115.593 13.8233 115.177 14.5051 114.582 14.7858C113.406 15.3473 111.904 14.5184 111.383 13.3019C111.1 12.6468 111.041 11.8313 111.145 11.1228C111.249 10.4276 111.443 9.74584 111.919 9.25121C112.499 8.64962 113.525 8.56941 114.24 8.90362C114.701 9.11752 115.236 9.57205 115.207 10.1603C115.192 10.7886 114.597 11.1362 114.106 11.2966C113.704 11.4437 113.287 11.4971 112.856 11.4704C112.796 12.2725 112.871 13.1014 113.153 13.8366C113.302 14.1976 113.57 14.5452 113.957 14.5719C114.388 14.5986 114.79 14.1174 115.013 13.7832C115.593 12.9142 116.04 11.9249 116.352 10.9089ZM112.96 10.8421C112.93 10.9223 112.915 11.0025 112.915 11.0827C113.302 11.1094 113.689 11.0292 114.031 10.8421C114.478 10.5747 114.701 9.95974 114.254 9.55869C113.511 8.91699 113.079 10.2271 112.96 10.8421Z" fill="#FFC334"/>
<path d="M3.97094 25.533C3.36555 27.4197 3.03534 29.3619 2.92527 31.3041C2.70513 35.0775 3.42059 38.851 5.12667 42.236C7.98848 47.7851 13.4369 52.3909 19.7109 53.3897C25.9849 54.4441 32.6991 52.1689 36.9368 47.3412C38.9731 44.955 40.5141 41.903 40.7892 38.74C41.0094 35.6325 40.1288 32.5804 38.2576 30.0833C36.3314 27.5307 33.3595 26.1989 30.2776 25.9769C26.4802 25.6995 22.7378 27.0313 19.2706 28.4741C19.0505 28.585 18.7753 28.6405 18.5001 28.6405C18.3901 31.3041 18.28 33.9677 18.1699 36.5758C18.1149 38.2961 18.0048 40.0163 17.8948 41.7365C17.8948 42.5689 17.7847 43.4013 17.7296 44.2891C17.5645 45.2325 17.2894 46.1758 16.9592 47.1192C16.5739 48.229 13.4369 48.118 12.9967 47.1192C11.6208 43.7342 11.5107 40.0163 11.2355 36.4093C11.0154 32.9134 10.9053 29.3619 10.7402 25.8105C10.6302 22.259 10.6852 18.6521 10.7402 15.0451C10.7402 13.3804 10.9053 11.6601 11.0154 9.93989C11.1255 7.99769 11.4006 6.22196 12.2262 4.44623C12.6664 3.44738 14.3725 3.2809 15.3081 3.2809C16.0786 3.22541 18.0048 3.44738 18.335 4.44623C18.6102 4.39073 18.8303 4.39073 19.1055 4.39073C22.0224 3.83582 24.9942 3.66935 27.9661 4.11328C30.4977 4.44623 32.9743 5.16762 34.6804 7.2208C36.6616 9.66243 35.5059 12.548 33.9099 14.8231C32.1488 17.3203 30.1125 19.5954 28.0212 21.7596C26.9755 22.7584 25.9849 23.7573 24.9392 24.7006C27.0305 24.2012 29.2319 23.9237 31.4333 24.0347C36.1113 24.2567 40.459 26.1434 43.3759 29.9723C45.5773 32.8024 46.5679 36.5203 45.9075 40.1273C45.192 43.8452 43.1007 47.1192 40.2939 49.6163C34.2401 55.0545 25.4345 56.7747 17.6196 54.8325C10.6852 53.1123 4.68639 48.1181 1.82458 41.5146C0.283601 37.9631 -0.266748 34.0787 0.118496 30.2498C0.283601 28.4186 0.668845 26.6428 1.27423 24.8671C1.60444 23.9238 2.04472 23.0359 2.31989 22.148C2.48499 21.7041 2.54003 21.2047 2.76017 20.8162C2.98031 20.3723 3.47562 19.9838 3.7508 19.6509C4.30114 19.0405 7.16296 19.0405 6.66764 20.2613C6.50254 20.7607 6.33743 21.2047 5.95219 21.6486C5.67702 22.037 5.40184 22.37 5.12667 22.8139C4.63135 23.6463 4.30114 24.5896 3.97094 25.533ZM28.7917 5.72253C25.5446 4.89016 21.9673 5.05663 18.7753 5.83351C19.0505 7.2208 19.1055 8.49711 19.1055 9.93989C19.1055 11.7156 19.1055 13.4913 19.0505 15.2671C18.9404 17.8752 18.8303 20.4833 18.7203 23.1469C18.8854 22.9804 18.9954 22.8694 19.1055 22.7584C20.3163 21.5931 21.5821 20.4833 22.7378 19.2625C25.1043 16.9318 27.3607 14.5457 29.5071 11.9931C30.3877 10.8832 31.5434 9.44046 31.4884 7.94219C31.4333 6.5549 29.9474 5.99999 28.7917 5.72253Z" fill="#062F35"/>
<path d="M62.3431 27.1423C62.6183 26.1434 65.2049 26.3654 64.8747 27.5307C63.4438 32.3585 62.0129 37.2417 59.9216 41.681C59.2061 43.2348 55.8987 46.058 54.4127 46.6129C52.5416 47.2788 50.2851 46.6129 48.9643 44.7817C47.5884 43.0059 47.2032 40.5088 46.7079 38.2337C46.2125 35.8475 45.8823 33.5169 45.6622 31.0753C45.2219 26.2475 45.387 21.4197 45.6072 16.592C45.6622 14.1503 45.8823 11.7087 46.0474 9.26708C46.2125 6.76996 46.2125 4.21735 46.8179 1.77573C46.983 1.05434 48.1388 0.499424 48.5791 0.332948C49.2395 0.110982 49.8999 0.0554908 50.5603 0C51.4959 0 54.0275 0.332948 54.3577 1.77573C54.9081 4.21735 54.853 6.76996 54.743 9.26708C54.6329 11.7087 54.5228 14.1503 54.3027 16.592C53.5872 25.0267 52.9818 33.4614 53.5322 41.9516C53.5872 42.673 53.5322 43.5053 53.7523 44.2267C54.853 43.0059 57.8853 39.8498 58.6008 38.2406C60.1417 34.6891 61.2424 30.8602 62.3431 27.1423Z" fill="#062F35"/>
<path d="M75.7755 27.8636C76.1607 26.9203 78.7474 27.1978 78.3071 28.3076C76.9863 32.1365 75.6104 35.9654 73.9043 39.5724C72.3633 42.8464 69.9968 45.8429 66.6397 44.5666C62.8973 43.1793 62.347 38.0186 61.9618 33.9677C61.7416 31.8035 61.6866 29.6949 61.7416 27.5307C61.7967 26.5319 61.8517 25.533 62.0168 24.5342C62.0718 23.9238 62.1819 23.2024 62.347 22.6474C62.6772 21.7596 63.0625 21.4266 63.7779 21.0382C65.2638 20.2058 67.1901 20.2613 68.621 21.2602C69.6666 21.9815 69.8317 22.9804 69.8868 24.3122C69.9968 26.1989 69.8868 28.0301 69.7767 29.8613C69.6666 31.7481 69.5566 33.5793 69.4465 35.466C69.3915 37.2417 69.3364 39.0729 69.1163 40.8487C69.0612 41.2926 69.0613 41.7365 69.0613 42.1805C69.2814 42.014 69.4465 41.8475 69.5566 41.681C70.5472 40.5712 71.2076 39.1284 71.868 37.6856C73.354 34.5226 74.5647 31.1931 75.7755 27.8636Z" fill="#062F35"/>
<path d="M100.768 28.1966C101.263 27.2532 103.85 27.6972 103.354 28.6405C100.823 33.1353 100.052 38.7955 97.1355 42.9573C96.6402 43.6787 96.1448 44.5111 95.4294 45.0105C94.2737 45.8429 92.7877 45.7874 91.5219 45.288C89.2655 44.4001 88.6601 41.5701 88.44 39.0174C87.9446 33.8012 88.9903 28.7515 89.1004 23.5908C89.1554 23.1469 89.2104 22.7029 89.2104 22.2035C89.2104 22.259 89.1554 22.3145 89.1004 22.37C88.7702 22.7584 88.495 23.2024 88.2198 23.6463C87.0641 25.644 86.0184 27.7527 85.1379 29.9168C83.3217 34.3562 82.0009 39.0174 80.68 43.6787C80.68 43.7342 80.68 43.7342 80.68 43.7897C80.625 43.9562 80.625 44.1227 80.625 44.2891C80.57 45.8984 77.9283 45.3435 77.2679 44.8441C75.7269 43.5677 75.3967 41.9585 75.2316 39.7943C75.0665 37.7966 75.0115 35.7434 74.9564 33.6903C74.9014 31.6926 74.8463 29.6394 74.7913 27.5862C74.7913 26.5319 74.8464 25.422 74.8464 24.3122C74.8464 23.2024 74.8463 21.9261 75.3967 21.0382C76.6075 19.1515 80.0747 19.096 81.2304 21.0382C81.7807 21.9261 81.7807 23.0359 81.7807 24.1457C81.7257 25.1446 81.7807 26.1434 81.7257 27.1978C81.6707 28.918 81.5606 30.6937 81.4505 32.414C81.6156 32.0255 81.7257 31.6371 81.8908 31.2486C83.1016 27.9191 84.5325 24.4787 86.5137 21.7596C88.6601 18.874 92.7327 18.763 94.824 21.7596C95.8146 23.2024 96.1448 25.422 96.31 27.2532C96.42 29.3064 96.42 31.4151 96.31 33.4683C96.1448 35.466 95.8697 37.4082 95.7596 39.4059C95.7046 39.7388 95.7046 40.1273 95.6495 40.4602C95.7046 40.4047 95.7596 40.2937 95.8146 40.2383C96.475 39.0729 97.0254 37.7966 97.4657 36.5203C98.5113 33.7457 99.3919 30.8047 100.768 28.1966Z" fill="#062F35"/>
<path d="M114.418 27.8636C114.803 26.9203 117.39 27.1978 116.95 28.3076C115.629 32.1365 114.253 35.9654 112.547 39.5724C111.006 42.8464 108.639 45.8429 105.282 44.5666C101.54 43.1793 100.99 38.0186 100.604 33.9677C100.384 31.8035 100.329 29.6949 100.384 27.5307C100.439 26.5319 100.494 25.533 100.659 24.5342C100.714 23.9238 100.825 23.2024 100.99 22.6474C101.32 21.7596 101.705 21.4266 102.421 21.0382C103.906 20.2058 105.833 20.2613 107.264 21.2602C108.309 21.9815 108.474 22.9804 108.529 24.3122C108.639 26.1989 108.529 28.0301 108.419 29.8613C108.309 31.7481 108.199 33.5793 108.089 35.466C108.034 37.2417 107.979 39.0729 107.759 40.8487C107.704 41.2926 107.704 41.7365 107.704 42.1805C107.924 42.014 108.089 41.8475 108.199 41.681C109.19 40.5712 109.85 39.1284 110.511 37.6856C111.997 34.5226 113.207 31.1931 114.418 27.8636Z" fill="#062F35"/>
</svg>
